<?xml version="1.0" encoding="UTF-8" standalone="no"?>
<svg width="1440" height="1200" viewBox="0 0 1440 1200" version="1.1" xmlns="http://www.w3.org/2000/svg">
  <image href="00-quantum-code-algorithm-interface.png" x="0" y="0" width="1440" height="1200"/>
  <g fill="none" stroke="#ff2b2b" stroke-width="4">
    <rect x="372" y="12" width="124" height="49" rx="6"/>
    <rect x="16" y="144" width="287" height="671" rx="6"/>
    <rect x="334" y="136" width="480" height="34" rx="6"/>
    <rect x="748" y="82" width="171" height="36" rx="6"/>
    <rect x="320" y="204" width="620" height="311" rx="6"/>
    <rect x="940" y="128" width="499" height="1010" rx="6"/>
    <rect x="333" y="528" width="593" height="540" rx="6"/>
    <rect x="0" y="1168" width="1440" height="32" rx="6"/>
  </g>
  <g font-family="STHeiti, Microsoft YaHei, PingFang SC, sans-serif" font-size="24" font-weight="600" fill="#ff2b2b">
    <rect x="390" y="70" width="262" height="35" rx="4" fill="#ffffff" stroke="#ff2b2b" stroke-width="2"/>
    <text x="400" y="98">1. 顶部入口：量子编程</text>
    <rect x="44" y="116" width="190" height="35" rx="4" fill="#ffffff" stroke="#ff2b2b" stroke-width="2"/>
    <text x="54" y="144">2. 量子门工具栏</text>
    <rect x="470" y="214" width="262" height="36" rx="4" fill="#ffffff" stroke="#ff2b2b" stroke-width="2"/>
    <text x="480" y="243">3. 选择并加载算法模板</text>
    <rect x="725" y="118" width="142" height="35" rx="4" fill="#ffffff" stroke="#ff2b2b" stroke-width="2"/>
    <text x="735" y="146">4. 点击运行</text>
    <rect x="515" y="525" width="166" height="36" rx="4" fill="#ffffff" stroke="#ff2b2b" stroke-width="2"/>
    <text x="525" y="554">5. 电路可视化</text>
    <rect x="1040" y="100" width="307" height="35" rx="4" fill="#ffffff" stroke="#ff2b2b" stroke-width="2"/>
    <text x="1050" y="128">6. OpenQASM代码编辑器</text>
    <rect x="445" y="1090" width="262" height="35" rx="4" fill="#ffffff" stroke="#ff2b2b" stroke-width="2"/>
    <text x="455" y="1118">7. 运行结果与测量分布</text>
    <rect x="520" y="1140" width="420" height="36" rx="4" fill="#ffffff" stroke="#ff2b2b" stroke-width="2"/>
    <text x="530" y="1169">8. 状态栏显示20量子比特/20经典比特</text>
  </g>
</svg>